#!OML:ASF I:\Actors\actors\Patient Classification 1\Patient 1\Session 1\Subject1.ASF
:FULLY-SPECIFIED
:DEGREES
467
root 1.09979 17.3162 9.42326 3.15349 -2.27883 -8.233
lowerback -2.69288 1.57039 4.28414
upperback -4.89093 2.10554 0.941282
thorax -3.41922 0.921008 -1.43062
lowerneck -8.66335 -2.74448 -0.0600044
upperneck -1.99727 -3.70345 6.12538
head 0.970277 -1.74387 1.80839
rclavicle 3.27995e-015 2.06736e-014
rhumerus -59.5068 34.4273 -116.394
rradius 117.927
rwrist -18.7287
rhand 35.9141 -29.2173
rfingers 7.12502
rthumb 58.9307 -44.0732
lclavicle 3.27995e-015 2.06736e-014
lhumerus -63.3196 -33.4363 115.233
lradius 116.235
lwrist 25.2806
lhand 9.96813 -17.0918
lfingers 7.12502
lthumb 35.0961 9.44172
rfemur -0.766987 19.0241 25.9685
rtibia 14.3538
rfoot -18.3043 -16.0043
rtoes -8.4811
lfemur 8.33349 -24.6756 -13.4124
ltibia 1.99301
lfoot -14.8825 33.8967
ltoes -6.55343
468
root 1.11124 17.3356 9.42435 3.40432 -2.56499 -8.14931
lowerback -2.65162 1.48321 4.57363
upperback -4.93411 1.98913 0.845691
thorax -3.48319 0.848563 -1.69234
lowerneck -8.58515 -2.85575 0.00883815
upperneck -1.20906 -3.90687 6.36301
head 1.22178 -1.82566 1.86485
rclavicle -4.77083e-015 -2.54444e-014
rhumerus -59.7348 34.8988 -116.305
rradius 118.119
rwrist -17.9817
rhand 37.0424 -28.6913
rfingers 7.12502
rthumb 59.9015 -42.5746
lclavicle -4.77083e-015 -2.54444e-014
lhumerus -63.4909 -33.6313 115.353
lradius 116.163
lwrist 24.9718
lhand 10.1987 -17.3704
lfingers 7.12502
lthumb 35.3147 9.1116
rfemur -0.891149 19.3462 25.7653
rtibia 14.0175
rfoot -18.0286 -16.0083
rtoes -8.25378
lfemur 8.2979 -24.9059 -13.6067
ltibia 1.78098
lfoot -15.1058 34.3365
ltoes -5.86997
469
root 1.11834 17.3574 9.42561 3.92378 -2.62706 -8.00359
lowerback -2.80341 1.36507 4.77599
upperback -5.14004 1.82413 0.685094
thorax -3.6138 0.749455 -1.96974
lowerneck -8.51806 -3.04238 -0.183129
upperneck -0.388245 -4.20055 6.91909
head 1.50924 -1.94282 2.0686
rclavicle -1.2424e-014 1.59028e-015
rhumerus -60.1919 35.2121 -116.383
rradius 118.293
rwrist -17.9024
rhand 37.4208 -28.1452
rfingers 7.12502
rthumb 60.2249 -41.6872
lclavicle -1.2424e-014 1.59028e-015
lhumerus -64.0881 -33.7744 115.607
lradius 116.253
lwrist 24.3292
lhand 9.88399 -17.5312
lfingers 7.12502
lthumb 35.0163 9.02108
rfemur -1.23207 19.7006 25.4516
rtibia 13.6213
rfoot -17.8602 -16.2243
rtoes -7.97582
lfemur 7.93097 -25.4243 -13.754
ltibia 1.53551
lfoot -15.212 34.8534
ltoes -5.17168
470
root 1.12118 17.383 9.42963 4.46754 -2.46373 -7.97734
lowerback -2.87835 1.18735 5.00462
upperback -5.461 1.5902 0.59804
thorax -3.91801 0.609604 -2.18932
lowerneck -8.31948 -3.23252 -0.597038
upperneck 0.327158 -4.48032 7.58533
head 1.7545 -2.05468 2.35345
rclavicle -6.95746e-016 1.66979e-014
rhumerus -60.9393 35.4654 -116.642
rradius 118.562
rwrist -18.3257
rhand 37.0331 -28.1874
rfingers 7.12502
rthumb 59.8936 -42.079
lclavicle -6.95746e-016 1.66979e-014
lhumerus -65.187 -33.7399 116.116
lradius 116.486
lwrist 23.213
lhand 8.81207 -17.7876
lfingers 7.12502
lthumb 33.9988 8.99642
rfemur -1.46748 20.0479 25.323
rtibia 13.0403
rfoot -17.719 -16.6192
rtoes -7.67478
lfemur 7.60803 -26.2569 -13.7591
ltibia 1.14273
lfoot -15.1413 35.516
ltoes -4.63784
471
root 1.12011 17.4105 9.43954 4.94327 -2.18035 -8.1763
lowerback -2.8711 0.984785 5.31896
upperback -5.77871 1.33272 0.641921
thorax -4.27318 0.45486 -2.32173
lowerneck -8.17589 -3.33892 -0.651443
upperneck 0.993387 -4.66929 7.77586
head 1.96519 -2.13071 2.42061
rclavicle 3.27995e-015 -1.35174e-014
rhumerus -61.657 35.6753 -116.831
rradius 118.836
rwrist -18.7311
rhand 36.5515 -28.3686
rfingers 7.12502
rthumb 59.4803 -42.6831
lclavicle 3.27995e-015 -1.35174e-014
lhumerus -66.3223 -33.6717 116.666
lradius 116.601
lwrist 22.1269
lhand 7.18338 -18.497
lfingers 7.12502
lthumb 32.4502 8.6176
rfemur -1.48353 20.4872 25.5359
rtibia 12.2891
rfoot -17.5346 -17.1407
rtoes -6.95528
lfemur 7.53945 -27.377 -13.5765
ltibia 0.557597
lfoot -15.1558 36.3471
ltoes -3.86167
472
root 1.11723 17.4326 9.44738 5.59123 -1.994 -8.35837
lowerback -2.93687 0.833343 5.48053
upperback -6.1235 1.1432 0.761557
thorax -4.6165 0.341169 -2.28785
lowerneck -8.25447 -3.48413 -0.791521
upperneck 1.59687 -4.90288 7.96819
head 2.20278 -2.22561 2.49997
rclavicle -4.57205e-015 8.74653e-015
rhumerus -62.1419 35.7885 -116.773
rradius 119.043
rwrist -18.2983
rhand 35.99 -28.0335
rfingers 7.12502
rthumb 58.9963 -42.826
lclavicle -4.57205e-015 8.74653e-015
lhumerus -67.2175 -33.5428 117.109
lradius 116.54
lwrist 21.5599
lhand 5.15951 -19.482
lfingers 7.12502
lthumb 30.5221 8.00947
rfemur -1.79699 20.9486 25.6245
rtibia 11.6548
rfoot -17.3562 -17.562
rtoes -6.27037
lfemur 7.24787 -28.4355 -13.3086
ltibia 0.0644571
lfoot -15.2855 37.2296
ltoes -3.13957
473
root 1.11457 17.45 9.44947 6.35193 -1.96799 -8.34695
lowerback -2.94195 0.707952 5.333
upperback -6.49484 0.995564 0.928039
thorax -5.02261 0.262054 -2.03273
lowerneck -8.30273 -3.58862 -1.23504
upperneck 1.90105 -5.04326 8.41322
head 2.35407 -2.27802 2.72566
rclavicle -3.57812e-015 1.11319e-014
rhumerus -62.3092 35.8212 -116.438
rradius 119.13
rwrist -17.0791
rhand 35.8604 -27.5235
rfingers 7.12502
rthumb 58.8842 -42.4241
lclavicle -3.57812e-015 1.11319e-014
lhumerus -67.8467 -33.2177 117.354
lradius 116.395
lwrist 21.6224
lhand 3.22873 -20.3995
lfingers 7.12502
lthumb 28.6791 7.41895
rfemur -2.42782 21.3111 25.3532
rtibia 11.2077
rfoot -17.22 -17.7739
rtoes -5.7717
lfemur 6.66778 -29.3083 -13.1442
ltibia -0.202349
lfoot -15.4557 38.0752
ltoes -2.5308
474
root 1.11281 17.4634 9.44942 7.11142 -2.00619 -8.29325
lowerback -2.85894 0.602653 5.06954
upperback -6.85996 0.881904 1.13855
thorax -5.47072 0.20806 -1.66701
lowerneck -8.19301 -3.62729 -1.71808
upperneck 1.90412 -5.07272 8.94014
head 2.37605 -2.28508 2.99579
rclavicle -9.93923e-017 7.95139e-016
rhumerus -62.2363 35.6479 -115.961
rradius 119.081
rwrist -15.8198
rhand 36.3791 -27.257
rfingers 7.12502
rthumb 59.3319 -41.72
lclavicle -9.93923e-017 7.95139e-016
lhumerus -68.244 -32.7389 117.399
lradius 116.159
lwrist 22.2282
lhand 1.9599 -20.9938
lfingers 7.12502
lthumb 27.4662 7.02351
rfemur -3.12872 21.5419 24.9768
rtibia 10.8173
rfoot -17.0151 -17.8575
rtoes -5.45542
lfemur 6.09108 -30.2815 -13.0305
ltibia -0.465338
lfoot -15.7828 39.0188
ltoes -1.38128
475
root 1.11394 17.4711 9.44858 7.8995 -2.07498 -8.30983
lowerback -2.83285 0.572255 4.89355
upperback -7.22598 0.865068 1.34359
thorax -5.88163 0.200897 -1.35548
lowerneck -7.65405 -3.7439 -2.0033
upperneck 1.29826 -5.17274 9.39509
head 2.11026 -2.35455 3.20458
rclavicle 1.59028e-015 -1.19271e-014
rhumerus -62.1795 35.1158 -115.563
rradius 118.907
rwrist -15.0083
rhand 36.4395 -26.845
rfingers 7.12502
rthumb 59.3839 -41.2562
lclavicle 1.59028e-015 -1.19271e-014
lhumerus -68.4767 -32.202 117.373
lradius 115.781
lwrist 23.3285
lhand 1.93209 -21.0234
lfingers 7.12502
lthumb 27.4396 6.99813
rfemur -3.9223 21.6113 24.6253
rtibia 10.5006
rfoot -16.7074 -17.7992
rtoes -5.72646
lfemur 5.48445 -31.284 -12.8141
ltibia -0.728729
lfoot -16.3046 39.9892
ltoes 0.162199
476
root 1.11668 17.4727 9.44599 8.8596 -2.3138 -8.38777
lowerback -2.96882 0.680564 4.87632
upperback -7.64731 1.02339 1.46634
thorax -6.24969 0.270905 -1.21973
lowerneck -6.96694 -3.95066 -2.4678
upperneck 0.416928 -5.3631 10.0727
head 1.75186 -2.47815 3.52572
rclavicle 7.45443e-015 -4.37326e-015
rhumerus -62.2804 34.2697 -115.432
rradius 118.503
rwrist -14.5656
rhand 39.8071 -27.2636
rfingers 7.12502
rthumb 62.2351 -38.4616
lclavicle 7.45443e-015 -4.37326e-015
lhumerus -68.7103 -31.7291 117.344
lradius 115.329
lwrist 24.7815
lhand 2.90324 -20.3111
lfingers 7.12502
lthumb 28.3681 7.55961
rfemur -5.09645 21.5771 24.2053
rtibia 10.4451
rfoot -16.4471 -17.4698
rtoes -6.02642
lfemur 4.62812 -32.1745 -12.4173
ltibia -0.882105
lfoot -16.9614 41.0257
ltoes 1.68485
477
root 1.11561 17.4694 9.44404 9.90601 -2.66221 -8.54739
lowerback -3.1976 0.90554 5.03754
upperback -8.07722 1.3287 1.47697
thorax -6.56473 0.400525 -1.30242
lowerneck -6.87801 -4.16157 -3.14315
upperneck 0.373237 -5.62775 11.1407
head 1.81342 -2.59509 4.02302
rclavicle -2.18663e-015 -1.51076e-014
rhumerus -62.4981 33.1548 -115.574
rradius 117.884
rwrist -14.4728
rhand 39.7396 -27.2532
rfingers 7.12502
rthumb 62.179 -38.5224
lclavicle -2.18663e-015 -1.51076e-014
lhumerus -69.031 -31.4486 117.355
lradius 114.889
lwrist 26.0628
lhand 3.79189 -19.1763
lfingers 7.12502
lthumb 29.217 8.54994
rfemur -6.46438 21.5554 23.8381
rtibia 10.5601
rfoot -16.2461 -17.0346
rtoes -6.06808
lfemur 3.69034 -33.0914 -11.8619
ltibia -1.03531
lfoot -17.6665 42.2527
ltoes 3.00529
478
root 1.10839 17.4667 9.44908 10.5925 -2.8712 -8.74916
lowerback -3.33151 1.1211 5.2218
upperback -8.29452 1.61677 1.43181
thorax -6.70304 0.524432 -1.4567
lowerneck -6.77254 -4.39057 -3.33137
upperneck 0.105956 -5.92096 11.8082
head 1.76783 -2.73951 4.28713
rclavicle -6.36111e-015 -3.18055e-014
rhumerus -62.6327 31.8398 -115.731
rradius 117.271
rwrist -14.9753
rhand 41.7334 -27.8013
rfingers 7.12502
rthumb 63.8155 -36.8345
lclavicle -6.36111e-015 -3.18055e-014
lhumerus -69.2232 -31.3589 117.37
lradius 114.423
lwrist 26.6822
lhand 4.28176 -18.4118
lfingers 7.12502
lthumb 29.6847 9.23211
rfemur -7.27929 21.6047 23.763
rtibia 10.5807
rfoot -16.0961 -16.8066
rtoes -6.128
lfemur 3.18478 -33.8484 -11.3857
ltibia -1.25371
lfoot -18.1655 43.2511
ltoes 3.79799
479
root 1.08917 17.4669 9.46845 10.7341 -2.65214 -8.8461
lowerback -3.39154 1.18227 5.16183
upperback -8.20686 1.68892 1.38817
thorax -6.56823 0.567506 -1.46892
lowerneck -6.51678 -4.69558 -3.41509
upperneck -0.675051 -6.26517 12.2797
head 1.51818 -2.93394 4.46257
rclavicle 8.94531e-016 8.74653e-015
rhumerus -62.645 30.5055 -115.838
rradius 116.823
rwrist -15.8189
rhand 41.7639 -28.5817
rfingers 7.12502
rthumb 63.8402 -37.5784
lclavicle 8.94531e-016 8.74653e-015
lhumerus -69.1927 -31.347 117.34
lradius 113.994
lwrist 26.7028
lhand 4.8675 -18.2255
lfingers 7.12502
lthumb 30.2436 9.31742
rfemur -7.12119 21.9128 23.9932
rtibia 10.2674
rfoot -16.0909 -17.2537
rtoes -5.70691
lfemur 3.2098 -34.2499 -11.1294
ltibia -1.48953
lfoot -18.1808 43.506
ltoes 3.81428
